<svg xmlns="http://www.w3.org/2000/svg" width="1113" height="906" fill="none"><path d="M 190.039 483.416 C 239.798 394.079 319.278 318.653 416.603 272.969 C 553.542 207.476 660.733 96.372 722.324 -42.514 C 682.669 -84.058 631.158 -113.752 575.677 -131.586 L 575.671 -131.587 L 546.271 -141.388 C 544.364 -137.451 542.539 -131.823 542.539 -128.086 L 542.539 -128 L 542.511 -127.92 C 494.763 7.365 397.276 116.79 265.968 178.466 M 190.039 483.416 C 154.363 461.657 116.724 443.844 79.087 429.978 L 79.003 429.947 L 78.914 429.947 C 75.177 429.947 69.549 428.122 65.612 426.216 M 265.969 178.466 C 174.665 222.133 107.174 301.53 75.413 396.815 L 65.612 426.216 M 693.316 542.209 L 693.318 542.208 C 818.471 482.612 919.816 393.251 993.387 282.057 C 1030.904 305.714 1070.396 325.45 1111.861 337.364 L 1102.087 366.684 L 1102.085 366.693 C 1072.312 461.965 1002.841 541.363 911.533 585.033 C 780.224 646.709 682.737 756.134 634.989 891.419 L 634.961 891.5 L 634.961 891.586 C 634.961 895.323 633.136 900.951 631.23 904.887 L 601.829 895.087 L 601.823 895.085 C 552.299 879.237 506.732 853.506 469.066 819.867 L 478.91 786.398 L 478.913 786.389 C 514.65 679.184 592.076 589.851 693.316 542.209 Z M 464.736 375.267 L 464.741 375.264 C 605.657 307.783 720.828 198.711 794.443 63.857 C 822.2 123.023 859.752 172.4 905.145 215.878 C 843.586 313.035 754.299 392.351 647.176 443.929 C 530.12 499.481 438.786 596.579 388.953 715.492 L 386.708 711.002 L 385.808 709.2 L 385.555 708.695 L 385.489 708.562 L 385.472 708.528 L 385.469 708.523 L 385.468 708.52 C 357.676 650.952 321.954 599.315 278.298 557.572 C 318.019 478.311 383.461 412.93 464.736 375.267 Z" fill="transparent" stroke="rgba(32, 33, 35, 0.07)" stroke-miterlimit="10" stroke-dasharray=""></path></svg>