<svg width="83" height="40" viewBox="0 0 249 120" fill="none" xmlns="http://www.w3.org/2000/svg"
                    class="left-logo">
                    <g clip-path="url(#clip0_172_1102)">
                        <path
                            d="M0.143555 119.935L7.144 87.1522C7.5519 85.1898 8.39343 83.6795 9.67225 82.6248C10.9511 81.5702 12.5717 81.041 14.534 81.041H35.4839C37.2257 81.041 38.7067 81.2725 39.9304 81.7356C41.1541 82.1986 42.1536 82.8564 42.9327 83.7089C43.7117 84.5615 44.274 85.5794 44.6267 86.7663C44.9795 87.9533 45.1559 89.2872 45.1559 90.7682C45.1559 91.4737 45.1192 92.2785 45.0457 93.1862C44.9722 94.0938 44.8399 95.0125 44.6562 95.9386C44.2482 98.1618 43.7668 100.076 43.212 101.69C42.6571 103.299 41.8707 104.626 40.8491 105.662C39.8312 106.698 38.5046 107.466 36.8766 107.966C35.245 108.466 33.1908 108.716 30.7104 108.716H15.0962L12.7076 119.939H0.1509L0.143555 119.935ZM25.9846 99.0401C26.8004 99.0401 27.5207 99.0033 28.1527 98.9298C28.7811 98.8563 29.3286 98.691 29.7917 98.4301C30.2547 98.1728 30.6442 97.8017 30.9602 97.3203C31.2726 96.8389 31.5445 96.1921 31.765 95.3763C31.8385 95.0787 31.9047 94.7296 31.9598 94.3217C32.0149 93.9138 32.0443 93.5977 32.0443 93.3773C32.0443 92.3042 31.6842 91.5913 30.9602 91.2385C30.2363 90.8857 29.1743 90.7094 27.7669 90.7094H21.3764C19.7448 90.7094 18.7637 91.5252 18.4329 93.1531L17.1541 99.0438H25.9883L25.9846 99.0401Z"
                            fill="black" />
                        <path
                            d="M76.9352 113.819C76.4538 116.042 75.5829 117.615 74.3224 118.541C73.062 119.467 71.4524 119.93 69.4864 119.93H55.3716C52.4832 119.93 50.1681 119.169 48.4262 117.651C46.6844 116.134 45.8135 114.057 45.8135 111.426C45.8135 110.537 45.9053 109.666 46.0928 108.813L49.9807 90.4763H60.8727L57.5397 106.146C57.4662 106.59 57.4001 107.005 57.3449 107.395C57.2898 107.785 57.2604 108.145 57.2604 108.479C57.2604 109.85 57.6683 110.824 58.4841 111.397C59.2999 111.97 60.5971 112.257 62.372 112.257H64.1506C65.0032 112.257 65.6132 112.099 65.9843 111.783C66.3555 111.467 66.6311 110.886 66.8185 110.033L70.9857 90.4727H81.8777L76.9315 113.811L76.9352 113.819Z"
                            fill="black" />
                        <path d="M88.1064 81.0371H98.9985L90.7192 119.935H79.8271L88.1064 81.0371Z" fill="black" />
                        <path
                            d="M95.8827 112.045H111.941C112.125 112.045 112.349 112.008 112.607 111.934C112.864 111.861 112.996 111.677 112.996 111.379C112.996 111.159 112.875 110.946 112.636 110.74C112.393 110.538 112.099 110.361 111.747 110.211C111.394 110.064 111.023 109.924 110.637 109.796C110.247 109.667 109.906 109.546 109.608 109.435L104.217 107.381C103.218 107.01 102.336 106.613 101.579 106.187C100.818 105.761 100.179 105.279 99.6604 104.743C99.1422 104.206 98.7527 103.574 98.4918 102.854C98.2309 102.13 98.1023 101.288 98.1023 100.326C98.1023 99.6973 98.1941 98.9182 98.3815 97.9922C98.9732 95.214 100.009 93.2701 101.494 92.1566C102.975 91.0468 105.106 90.4883 107.885 90.4883H128L126.391 98.0436H109.917C109.711 98.0436 109.501 98.062 109.277 98.0988C109.057 98.1355 108.869 98.1906 108.722 98.2641C108.575 98.3376 108.502 98.4515 108.502 98.5985C108.502 99.0064 108.704 99.2747 109.112 99.4033C109.52 99.5319 110.148 99.7634 111.001 100.098L117.391 102.597C118.464 103.041 119.438 103.486 120.309 103.931C121.18 104.375 121.918 104.893 122.532 105.485C123.142 106.077 123.616 106.764 123.951 107.539C124.285 108.315 124.45 109.263 124.45 110.373C124.45 111.001 124.359 111.78 124.171 112.706C123.873 114.113 123.477 115.282 122.977 116.208C122.477 117.134 121.845 117.876 121.088 118.431C120.327 118.986 119.42 119.376 118.365 119.6C117.31 119.824 116.094 119.934 114.727 119.934H94.2217L95.89 112.045H95.8827Z"
                            fill="black" />
                        <path
                            d="M137.838 119.935C134.244 119.935 131.613 119.222 129.948 117.796C128.28 116.37 127.449 114.062 127.449 110.876C127.449 109.84 127.504 108.804 127.615 107.764C127.725 106.728 127.949 105.449 128.28 103.931C128.761 101.818 129.272 100.014 129.808 98.5144C130.345 97.0151 130.973 95.7546 131.697 94.7367C132.421 93.7188 133.244 92.903 134.17 92.293C135.096 91.683 136.199 91.22 137.478 90.9039C138.757 90.5879 140.208 90.3858 141.84 90.2939C143.468 90.202 145.36 90.1543 147.506 90.1543C149.803 90.1543 151.813 90.2645 153.536 90.4887C155.26 90.7092 156.704 91.1171 157.869 91.7124C159.038 92.304 159.916 93.1309 160.508 94.1855C161.099 95.2402 161.397 96.6035 161.397 98.2682C161.397 99.0105 161.349 99.8153 161.257 100.686C161.165 101.557 161.026 102.38 160.842 103.159C160.434 104.828 159.787 106.169 158.898 107.187C158.009 108.205 156.601 108.716 154.676 108.716H138.617C138.507 109.16 138.451 109.55 138.451 109.881C138.451 110.843 138.83 111.501 139.591 111.854C140.351 112.207 141.564 112.383 143.229 112.383H157.509L155.896 119.938H137.838V119.935ZM148.116 101.818C149.005 101.818 149.571 101.671 149.81 101.373C150.049 101.076 150.207 100.763 150.284 100.429C150.321 100.319 150.339 100.172 150.339 99.9843V99.5948C150.339 99.1502 150.181 98.8084 149.865 98.5658C149.549 98.327 149.16 98.1396 148.7 98.011C148.237 97.8823 147.745 97.7978 147.227 97.7611C146.709 97.7243 146.264 97.706 145.893 97.706C145.04 97.706 144.298 97.7537 143.67 97.8456C143.041 97.9375 142.483 98.1249 142.001 98.4005C141.52 98.6798 141.119 99.0877 140.807 99.6242C140.491 100.161 140.241 100.892 140.057 101.818H148.112H148.116Z"
                            fill="black" />
                        <path
                            d="M162.451 119.934L167.063 98.2638H162.672L164.34 90.4843H168.731C169.4 88.0038 170.4 86.0929 171.734 84.759C173.068 83.425 174.67 82.4549 176.54 81.8412C178.411 81.2312 180.476 80.8674 182.736 80.7572C184.996 80.6469 187.385 80.5918 189.905 80.5918L188.461 87.3718C187.201 87.3718 186.062 87.3901 185.044 87.4269C184.026 87.4636 183.144 87.5739 182.405 87.7613C181.663 87.945 181.053 88.2537 180.572 88.6763C180.09 89.1026 179.774 89.7052 179.627 90.4843H187.851L186.183 98.2638H177.959L173.347 119.934H162.455H162.451Z"
                            fill="black" />
                        <path
                            d="M206.35 90.1504C211.388 90.1504 215.129 90.9294 217.573 92.4839C220.017 94.0383 221.24 96.7613 221.24 100.653C221.24 101.505 221.204 102.395 221.13 103.321C221.057 104.247 220.906 105.246 220.685 106.323C220.02 109.399 219.223 111.85 218.297 113.687C217.371 115.521 216.165 116.921 214.685 117.884C213.204 118.847 211.359 119.486 209.158 119.802C206.953 120.118 204.259 120.276 201.073 120.276C198.552 120.276 196.369 120.1 194.517 119.747C192.665 119.394 191.129 118.814 189.905 117.998C188.682 117.182 187.767 116.109 187.153 114.775C186.539 113.441 186.234 111.813 186.234 109.884C186.234 109.031 186.271 108.124 186.345 107.161C186.418 106.198 186.565 105.18 186.789 104.104C187.418 101.068 188.197 98.6208 189.123 96.7687C190.049 94.9166 191.25 93.5091 192.735 92.5463C194.216 91.5835 196.061 90.9441 198.266 90.6281C200.47 90.3121 203.164 90.1541 206.35 90.1541V90.1504ZM197.902 104.651C197.755 105.283 197.634 105.956 197.542 106.68C197.45 107.403 197.402 108.006 197.402 108.484C197.402 109.744 197.744 110.725 198.431 111.427C199.114 112.133 200.368 112.482 202.183 112.482C203.443 112.482 204.491 112.342 205.321 112.067C206.155 111.787 206.85 111.365 207.405 110.788C207.96 110.215 208.404 109.509 208.739 108.675C209.073 107.841 209.349 106.871 209.573 105.757C209.72 105.129 209.841 104.453 209.933 103.729C210.025 103.005 210.073 102.406 210.073 101.921C210.073 100.66 209.731 99.6791 209.044 98.9772C208.357 98.2753 207.107 97.9225 205.292 97.9225C204.031 97.9225 202.984 98.0622 202.154 98.3378C201.319 98.6171 200.625 99.0434 200.07 99.6166C199.515 100.19 199.07 100.895 198.736 101.73C198.402 102.564 198.126 103.538 197.902 104.647V104.651Z"
                            fill="black" />
                        <path
                            d="M224.739 102.706C225.257 100.226 225.97 98.1865 226.877 96.5953C227.785 95.0041 228.924 93.751 230.295 92.8433C231.666 91.9357 233.297 91.3147 235.186 90.9803C237.075 90.6459 239.28 90.4805 241.797 90.4805H248.967L247.357 98.1497H243.3C240.779 98.1497 238.89 98.8149 237.634 100.149C236.373 101.483 235.484 103.408 234.966 105.929L231.963 119.93H221.071L224.739 102.703V102.706Z"
                            fill="black" />
                        <path
                            d="M154.896 58.2676C152.952 55.5152 150.178 53.0311 146.782 52.3439C133.31 49.6135 127.251 75.3884 111.74 68.5313C102.582 64.4854 88.6624 48.8418 84.2527 39.868C80.9564 33.1542 79.4056 25.2461 82.8857 18.2861C84.9031 14.2511 88.2655 11.0761 92.0322 8.66916C92.113 8.61772 92.1902 8.56627 92.271 8.5185C96.8755 5.60807 101.755 3.31501 107.242 2.96958C113.478 2.58005 129.261 2.74174 130.738 3.38115C132.362 4.08671 137.988 10.3118 139.66 12.0389C142.567 15.0449 145.47 18.0545 148.377 21.0605C148.509 21.1965 148.642 21.3361 148.774 21.4721C137.878 21.9608 126.92 21.6154 116.006 21.564C111.607 21.5419 104.015 20.3366 101.807 25.4445C99.9476 29.7403 103.493 33.9921 106.154 37.0127L115.488 46.9493H115.874L133.351 34.9218C142.674 29.8212 155.668 31.541 163.918 38.0159C166.593 40.1179 179.727 53.6779 182.777 57.6613C182.931 57.8634 183.162 57.9149 183.078 58.264H154.9L154.896 58.2676Z"
                            fill="black" />
                        <path
                            d="M80.7462 0.382058C82.918 0.213018 85.5307 0.227725 87.6768 0.551106C88.2427 0.635626 90.2638 0.753221 89.9993 1.60944C83.4508 4.68523 77.031 10.8111 75.0282 17.9218C74.7636 18.8625 74.4108 21.8391 74.0617 22.3683C72.9152 24.0881 69.0199 20.3067 68.2519 19.3733C60.0131 9.32648 70.986 1.15009 80.7498 0.382058H80.7462Z"
                            fill="black" />
                    </g>
                    <defs>
                        <clipPath id="clip0_172_1102">
                            <rect width="249" height="120" fill="white" />
                        </clipPath>
                    </defs>
                </svg>